<?xml version="1.0" encoding="UTF-8" standalone="no"?>
<svg
   xmlns:dc="http://purl.org/dc/elements/1.1/"
   xmlns:cc="http://creativecommons.org/ns#"
   xmlns:rdf="http://www.w3.org/1999/02/22-rdf-syntax-ns#"
   xmlns:svg="http://www.w3.org/2000/svg"
   xmlns="http://www.w3.org/2000/svg"
   xmlns:sodipodi="http://sodipodi.sourceforge.net/DTD/sodipodi-0.dtd"
   xmlns:inkscape="http://www.inkscape.org/namespaces/inkscape"
   width="210mm"
   height="297mm"
   viewBox="0 0 210 297"
   version="1.1"
   id="svg3123"
   inkscape:version="1.0.1 (3bc2e813f5, 2020-09-07)"
   sodipodi:docname="n64-controller.svg">
  <defs
     id="defs3117">
    <pattern
       id="EMFhbasepattern"
       patternUnits="userSpaceOnUse"
       width="6"
       height="6"
       x="0"
       y="0" />
  </defs>
  <sodipodi:namedview
     id="base"
     pagecolor="#ffffff"
     bordercolor="#666666"
     borderopacity="1.0"
     inkscape:pageopacity="0.0"
     inkscape:pageshadow="2"
     inkscape:zoom="0.98422794"
     inkscape:cx="366.87429"
     inkscape:cy="482.24232"
     inkscape:document-units="mm"
     inkscape:current-layer="layer1"
     inkscape:document-rotation="0"
     showgrid="false"
     inkscape:window-width="2560"
     inkscape:window-height="1387"
     inkscape:window-x="1272"
     inkscape:window-y="-8"
     inkscape:window-maximized="1" />
  <metadata
     id="metadata3120">
    <rdf:RDF>
      <cc:Work
         rdf:about="">
        <dc:format>image/svg+xml</dc:format>
        <dc:type
           rdf:resource="http://purl.org/dc/dcmitype/StillImage" />
        <dc:title></dc:title>
      </cc:Work>
    </rdf:RDF>
  </metadata>
  <g
     inkscape:label="Layer 1"
     inkscape:groupmode="layer"
     id="layer1">
    <path
       style="opacity:1;fill:#999999;stroke:#000000;stroke-width:2;stroke-miterlimit:4;stroke-dasharray:none;stroke-opacity:1"
       d="m 159.02164,179.47574 c 4.22025,-1.90449 6.28702,-7.08236 7.60023,-19.04089 1.49599,-13.62284 0.24084,-34.30392 -1.99705,-47.32577 -0.20446,-1.18966 -0.20446,-1.18966 -0.81578,1.12198 -2.98495,11.28726 -13.59592,24.03716 -29.26288,26.03289 -0.81252,0.1035 -3.77405,0.3089 -3.60094,0.36847 0.53476,0.18404 2.20561,0.19552 2.97591,0.42882 2.64606,0.8014 6.14267,5.68736 7.86503,13.7161 4.7533,22.15739 9.09126,28.37366 17.23548,24.6984 z"
       id="path3879"
       sodipodi:nodetypes="sssssssss" />
    <path
       style="opacity:1;fill:#999999;stroke:#000000;stroke-width:2;stroke-miterlimit:4;stroke-dasharray:none;stroke-opacity:1"
       d="m 32.861846,179.99085 c 5.00628,-1.30397 7.90516,-7.49824 11.63722,-24.86622 1.74689,-8.12955 4.040457,-12.01723 6.760691,-13.41247 1.175878,-0.60312 7.936069,-0.81879 7.254723,-1.00324 -0.347508,-0.0941 -7.714416,-0.40085 -8.622923,-0.51096 -13.947408,-1.69042 -24.46162,-12.73569 -27.45118,-23.32573 -0.3377,-1.19622 -0.67694,-2.2379 -0.75388,-2.31484 -0.0769,-0.0769 -0.4002,1.61825 -0.71836,3.76707 -2.15481,14.55314 -2.561091,37.51868 -0.08673,49.90929 1.46209,7.32157 4.05435,11.05512 8.25242,11.88568 1.64494,0.32544 2.03682,0.31192 3.728019,-0.12858 z"
       id="path3877"
       sodipodi:nodetypes="ssssssscsss" />
    <path
       style="opacity:1;fill:#666666;stroke:#000000;stroke-width:2;stroke-miterlimit:4;stroke-dasharray:none;stroke-opacity:1"
       d="m 34.669026,91.826028 27.72169,-6.884126 1.818325,-6.455174 c 0,0 -24.936365,1.49832 -32.278785,8.638042 l 0.172599,5.12895 z"
       id="path3885"
       sodipodi:nodetypes="cccccc" />
    <path
       style="opacity:1;fill:#666666;stroke:#000000;stroke-width:2;stroke-miterlimit:4;stroke-dasharray:none;stroke-opacity:1"
       d="m 151.88386,91.82585 -27.72169,-6.884125 -1.81832,-6.455175 c 0,0 24.93636,1.49832 32.27878,8.638043 l -0.1726,5.128949 z"
       id="path3885-3"
       sodipodi:nodetypes="cccccc" />
    <path
       style="opacity:1;fill:#b3b3b3;stroke:#000000;stroke-width:2;stroke-miterlimit:4;stroke-dasharray:none;stroke-opacity:1"
       d="m 96.641306,210.13404 c 3.380854,-1.51705 6.454544,-6.19977 9.099164,-13.8624 2.68812,-7.78869 3.74969,-12.87923 6.70151,-32.13562 3.19508,-20.84329 4.75644,-22.60184 20.76255,-23.38477 21.1825,-1.03614 31.92894,-10.58468 31.38845,-27.88957 -0.43636,-13.97068 -8.39177,-24.158157 -21.67654,-27.75838 -3.41038,-0.924226 -14.1984,-2.461285 -17.10739,-2.719429 0,0 -2.8761,-5.127414 -4.06555,-6.958522 -0.83939,-1.771386 -15.39779,-6.171957 -28.038814,-6.171957 -11.83651,0 -27.511412,3.714691 -28.56411,6.145662 l -3.466375,6.79723 -7.516145,1.067272 c -19.91914,2.168581 -30.28071,10.635003 -32.25997,26.359574 -2.35782,18.73214 9.00373,30.06503 31.20249,31.12376 15.92894,0.7597 17.70816,2.72014 20.74733,22.86039 2.41524,16.0055 3.44807,21.53411 5.14373,27.53369 4.49992,15.9216 10.38385,22.25339 17.64967,18.99307 z"
       id="path3819"
       sodipodi:nodetypes="ssssssccscccsssss" />
    <ellipse
       style="opacity:1;fill:#666666;fill-opacity:1;stroke:#000000;stroke-width:1;stroke-miterlimit:4;stroke-dasharray:none;stroke-opacity:1"
       id="path4050"
       cx="93.281662"
       cy="149.23048"
       rx="15.356243"
       ry="15.389847" />
    <path
       style="opacity:1;fill:#1a1a1a;stroke:#000000;stroke-width:0.5;stroke-miterlimit:4;stroke-dasharray:none;stroke-opacity:1"
       d="m 97.472306,157.25386 c 2.869884,-1.16156 2.592834,-0.84172 4.226594,-4.87944 1.31925,-3.26043 1.31925,-3.26043 -0.004,-6.51708 -1.62318,-3.99318 -1.25715,-3.62328 -5.222619,-5.27796 -3.293655,-1.37436 -3.293655,-1.37436 -6.766293,0.0702 -3.472637,1.44446 -3.472637,1.44446 -4.955151,4.95638 -1.482514,3.51191 -1.482514,3.51191 0,7.02456 1.482514,3.51266 1.482514,3.51266 4.934707,4.95635 3.352146,1.40187 3.480201,1.43206 4.418804,1.04148 0.531635,-0.22124 2.047475,-0.83971 3.368526,-1.37439 z"
       id="path3827" />
    <path
       style="fill:#e6e6e6;stroke-width:0.5;opacity:1;stroke:#000000;stroke-opacity:1;stroke-miterlimit:4;stroke-dasharray:none"
       d="m 90.808556,156.06467 c -3.19709,-0.95777 -5.44345,-4.93001 -4.69055,-8.29433 1.46124,-6.52952 10.04671,-7.88776 13.29527,-2.10334 3.226694,5.74546 -2.20892,12.31367 -8.60472,10.39767 z"
       id="path3829" />
    <path
       style="opacity:1;fill:#cccccc;stroke:#000000;stroke-width:1;stroke-miterlimit:4;stroke-dasharray:none;stroke-opacity:1"
       d="m 65.017829,75.401478 -3.343628,6.794806 c 0,0 6.248151,22.468596 5.826195,20.433286 -0.827522,-9.076031 -2.462914,-28.250425 -2.482567,-27.228092 z"
       id="path3881"
       sodipodi:nodetypes="cccc" />
    <path
       style="fill:#000000;stroke-width:0.264369"
       id="path3138"
       d="" />
    <circle
       style="opacity:1;fill:#ff0000;stroke:#000000;stroke-width:1;stroke-miterlimit:4;stroke-dasharray:none;stroke-opacity:1"
       id="path3892"
       cx="93.14756"
       cy="119.22792"
       r="6.7085466" />
    <path
       id="rect3924"
       style="opacity:1;fill:none;stroke:#000000;stroke-width:0.5;stroke-miterlimit:4;stroke-dasharray:none;stroke-opacity:1"
       d="m 123.98074,122.64871 1.54028,-1.51666 3.96468,3.71008 -1.77651,1.15706 z"
       sodipodi:nodetypes="ccccc" />
    <circle
       style="opacity:1;fill:#00ff00;stroke:#000000;stroke-width:1;stroke-miterlimit:4;stroke-dasharray:none;stroke-opacity:1"
       id="path3892-0"
       cx="121.27341"
       cy="118.1497"
       r="5.2315807" />
    <circle
       style="opacity:1;fill:#0000ff;stroke:#000000;stroke-width:1;stroke-miterlimit:4;stroke-dasharray:none;stroke-opacity:1"
       id="path3892-0-9"
       cx="131.88081"
       cy="129.24153"
       r="5.2315807" />
    <rect
       style="opacity:0.645161;fill:#999999;stroke:#000000;stroke-width:1;stroke-miterlimit:4;stroke-dasharray:none;stroke-opacity:1"
       id="rect3948"
       width="29.365215"
       height="6.4055333"
       x="78.46347"
       y="84.188957"
       ry="3.1025405"
       rx="3.1738269" />
    <path
       style="opacity:1;fill:#666666;stroke:#000000;stroke-width:1;stroke-miterlimit:4;stroke-dasharray:none;stroke-opacity:1"
       d="m 121.7435,75.425349 3.34362,6.794806 c 0,0 -6.24815,22.468595 -5.82619,20.433285 0.82752,-9.07603 2.46291,-28.250424 2.48257,-27.228091 z"
       id="path3881-7"
       sodipodi:nodetypes="cccc" />
    <ellipse
       style="opacity:1;fill:#999999;stroke:none;stroke-width:1;stroke-miterlimit:4;stroke-dasharray:none;stroke-opacity:1;fill-opacity:1"
       id="path3982"
       cx="46.353729"
       cy="114.51382"
       rx="16.790049"
       ry="16.844238" />
    <path
       id="rect3984"
       style="opacity:1;fill:#333333;fill-opacity:1;stroke:#000000;stroke-width:3.77953;stroke-miterlimit:4;stroke-dasharray:none;stroke-opacity:1"
       d="M 174.89453 390.91992 C 168.15317 390.91992 162.72656 393.73545 162.72656 397.23242 L 162.72656 419.83789 L 140.12109 419.83789 C 136.62412 419.83789 133.80859 425.26451 133.80859 432.00586 L 133.80859 432.81445 C 133.80859 439.55581 136.62412 444.98242 140.12109 444.98242 L 162.72656 444.98242 L 162.72656 467.58789 C 162.72656 471.08486 168.15317 473.90039 174.89453 473.90039 L 175.70312 473.90039 C 182.44449 473.90039 187.87109 471.08486 187.87109 467.58789 L 187.87109 444.98242 L 210.47656 444.98242 C 213.97353 444.98242 216.78906 439.55581 216.78906 432.81445 L 216.78906 432.00586 C 216.78906 425.26451 213.97353 419.83789 210.47656 419.83789 L 187.87109 419.83789 L 187.87109 397.23242 C 187.87109 393.73545 182.44449 390.91992 175.70312 390.91992 L 174.89453 390.91992 z "
       transform="scale(0.26458333)" />
    <circle
       style="opacity:1;fill:#999999;fill-opacity:1;stroke:#000000;stroke-width:0.5;stroke-miterlimit:4;stroke-dasharray:none;stroke-opacity:1"
       id="path4048"
       cy="109.39449"
       cx="143.2998"
       r="11.098639" />
    <circle
       style="opacity:1;fill:#ffff00;stroke:#000000;stroke-width:0.82998;stroke-miterlimit:4;stroke-dasharray:none;stroke-opacity:1"
       id="path3892-0-5"
       cx="134.47882"
       cy="108.94062"
       r="4.3421068" />
    <circle
       style="opacity:1;fill:#ffff00;stroke:#000000;stroke-width:0.829979;stroke-miterlimit:4;stroke-dasharray:none;stroke-opacity:1"
       id="path3892-0-5-2"
       cx="152.28836"
       cy="108.94061"
       r="4.3421068" />
    <circle
       style="opacity:1;fill:#ffff00;stroke:#000000;stroke-width:0.829979;stroke-miterlimit:4;stroke-dasharray:none;stroke-opacity:1"
       id="path3892-0-5-5"
       cx="142.94675"
       cy="100.47269"
       r="4.3421068" />
    <circle
       style="opacity:1;fill:#ffff00;stroke:#000000;stroke-width:0.829979;stroke-miterlimit:4;stroke-dasharray:none;stroke-opacity:1"
       id="path3892-0-5-7"
       cx="143.04756"
       cy="118.31582"
       r="4.3421068" />
    <path
       style="opacity:1;fill:#e6e6e6;stroke:#ffffff;stroke-width:1;stroke-miterlimit:4;stroke-dasharray:none;stroke-opacity:1"
       d="m 91.310516,154.60644 c -2.517257,-0.75411 -4.28595,-3.88169 -3.693146,-6.53061 1.15052,-5.14108 7.910368,-6.2105 10.468147,-1.65608 2.540573,4.52373 -1.739209,9.69528 -6.775001,8.18669 z"
       id="path3829-4" />
    <path
       style="opacity:1;fill:#e6e6e6;stroke:#ffffff;stroke-width:1;stroke-miterlimit:4;stroke-dasharray:none;stroke-opacity:1"
       d="m 91.933837,152.79309 c -1.6719,-0.50086 -2.846622,-2.57812 -2.452896,-4.33746 0.764147,-3.41458 5.253869,-4.12486 6.952682,-1.09993 1.687385,3.00455 -1.15514,6.43936 -4.499786,5.43739 z"
       id="path3829-4-2" />
    <path
       style="opacity:1;fill:#e6e6e6;stroke:#ffffff;stroke-width:1;stroke-miterlimit:4;stroke-dasharray:none;stroke-opacity:1"
       d="m 92.606431,150.83354 c -0.758421,-0.2272 -1.291308,-1.1695 -1.112703,-1.96759 0.346639,-1.54895 2.383302,-1.87115 3.153935,-0.49896 0.765443,1.36295 -0.524004,2.92108 -2.041232,2.46655 z"
       id="path3829-4-2-1" />
  </g>
</svg>
